<?xml version="1.0" standalone="no"?>
<!DOCTYPE svg PUBLIC "-//W3C//DTD SVG 20010904//EN"
 "http://www.w3.org/TR/2001/REC-SVG-20010904/DTD/svg10.dtd">
<svg version="1.0" xmlns="http://www.w3.org/2000/svg"
 width="300.000000pt" height="300.000000pt" viewBox="0 0 300.000000 300.000000"
 preserveAspectRatio="xMidYMid meet">
<metadata>
Created by potrace 1.10, written by Peter Selinger 2001-2011
</metadata>
<g transform="translate(0.000000,300.000000) scale(0.100000,-0.100000)"
fill="#000000" stroke="none">
<path d="M635 2571 c-43 -26 -71 -61 -83 -101 -32 -108 -42 -412 -17 -555 l16
-87 -30 -78 c-17 -43 -38 -121 -48 -174 -14 -78 -21 -95 -33 -90 -66 25 -120
-2 -120 -60 0 -40 22 -62 81 -79 49 -14 51 -18 69 -137 6 -41 13 -84 16 -95 4
-17 -5 -23 -73 -45 -66 -21 -79 -29 -87 -52 -14 -39 3 -80 37 -92 25 -9 107 5
170 30 10 3 30 -17 61 -61 161 -225 478 -344 922 -345 434 -1 756 115 918 330
24 33 46 65 48 71 3 8 25 5 74 -10 39 -12 83 -21 98 -21 57 0 87 74 47 117
-11 11 -49 28 -85 38 -36 10 -66 23 -66 29 1 6 7 38 15 71 8 33 15 79 15 101
0 47 9 58 64 72 53 15 76 38 76 78 0 24 -8 38 -27 54 -27 21 -51 22 -94 5 -13
-5 -18 7 -28 67 -7 40 -28 120 -47 178 -32 97 -34 108 -23 155 27 121 20 457
-12 577 -20 78 -88 128 -171 128 -55 0 -75 -13 -261 -162 l-150 -121 -84 22
c-195 51 -410 51 -605 0 l-85 -22 -153 122 c-84 68 -167 131 -184 142 -41 25
-121 25 -161 0z m285 -281 c199 -161 177 -153 330 -105 163 52 436 44 594 -16
28 -10 62 -19 75 -19 15 0 88 52 211 150 123 98 193 148 203 144 19 -7 25 -43
36 -204 9 -130 2 -262 -19 -365 -13 -59 -12 -62 23 -156 40 -107 54 -161 59
-233 l3 -49 -108 -33 c-60 -18 -118 -40 -128 -50 -29 -26 -22 -81 14 -107 l27
-21 78 23 c132 40 122 43 108 -33 -7 -37 -15 -68 -17 -71 -3 -2 -41 6 -86 18
-93 24 -128 17 -139 -29 -14 -54 5 -77 84 -104 39 -14 72 -28 72 -31 0 -19
-104 -119 -166 -159 -148 -96 -351 -140 -654 -140 -379 0 -611 70 -762 228
-32 33 -58 64 -58 69 0 5 33 19 72 33 60 21 74 30 82 52 14 39 -3 80 -37 92
-25 9 -107 -5 -171 -30 -15 -6 -25 20 -40 105 -7 39 -11 39 116 0 l78 -23 27
21 c35 26 43 81 15 106 -10 9 -65 31 -123 48 -57 17 -108 35 -113 39 -15 14
23 189 61 285 l36 90 -19 90 c-31 148 -19 514 18 536 17 11 23 6 218 -151z"/>
<path d="M1882 1395 c-121 -76 -122 -95 -15 -165 84 -54 85 -55 114 -40 33 18
25 65 -16 93 l-36 24 36 27 c36 28 46 61 23 84 -20 20 -50 13 -106 -23z"/>
<path d="M1124 1390 c-87 -36 -60 -169 34 -170 44 0 92 46 92 89 0 59 -71 105
-126 81z"/>
<path d="M1413 1083 c-21 -8 -15 -49 12 -81 l24 -29 -24 -23 c-38 -36 -89 -30
-130 14 -37 41 -61 45 -99 15 -54 -43 -21 -130 66 -173 70 -35 137 -35 206 0
l52 26 52 -26 c94 -47 199 -28 266 48 42 48 44 95 6 125 -38 30 -62 26 -101
-15 -41 -44 -91 -49 -128 -14 l-24 23 24 29 c27 32 32 57 13 76 -12 12 -188
16 -215 5z"/>
</g>
</svg>
